<?xml version="1.0" encoding="utf-8"?>
<!-- Generator: Adobe Illustrator 17.1.0, SVG Export Plug-In . SVG Version: 6.00 Build 0)  -->
<!DOCTYPE svg PUBLIC "-//W3C//DTD SVG 1.1//EN" "http://www.w3.org/Graphics/SVG/1.1/DTD/svg11.dtd">
<svg version="1.1" id="Layer_1" xmlns="http://www.w3.org/2000/svg" xmlns:xlink="http://www.w3.org/1999/xlink" x="0px" y="0px"
	 viewBox="0 0 512 512" enable-background="new 0 0 512 512" xml:space="preserve">
<g id="XMLID_1013_">
	<g id="XMLID_1014_">
		<path id="XMLID_1016_" fill="#E82629" d="M385.7,263.6c27.3,33.6,11.2,91.8-56.9,120.6c-61.8,26.2-218.1,55.1-246.2,60.1
			c29.9,27.6,66.8,48.4,108.8,59.3c136.7,35.6,279-49,313-186.1c23-92.8-7.9-186.4-72.7-247.7v0c-33.5,49.7-85.3,84.2-144,96
			c-100.1,20.1-110.2,44.2-108.8,63.5c0.3,4.7,2.9,12.4,11,17.3C210.1,259,347.2,216.2,385.7,263.6z"/>
		<path id="XMLID_1015_" fill="#231F20" d="M80.3,442.1L80.3,442.1C113.4,393,164.1,358.4,222,346c100.6-21.6,107.4-49.7,105.9-69.2
			c-0.6-7.7-7.4-11.4-15.9-15.2c-25.7-11.3-154.2,29.7-185.7-13.2c-25.6-34.8-11.2-91.8,56.9-120.6c61.8-26.2,218.1-55.1,246.2-60.1
			c-29.9-27.6-66.8-48.4-108.8-59.3c-136.7-35.6-279,49-313,186.1C-15.4,287.3,15.4,380.8,80.3,442.1z"/>
	</g>
</g>
</svg>
